<svg fill="none" height="48" viewBox="0 0 96 48" width="96" xmlns="http://www.w3.org/2000/svg" xmlns:xlink="http://www.w3.org/1999/xlink"><linearGradient id="a" gradientUnits="userSpaceOnUse" x1="1.56354" x2="96.2121" y1="0" y2=".568992"><stop offset="0" stop-color="#1edb01"/><stop offset="1" stop-color="#00c746"/></linearGradient><linearGradient id="b"><stop offset="0" stop-color="#00a7fa"/><stop offset="1" stop-color="#00a7fa" stop-opacity="0"/></linearGradient><radialGradient id="c" cx="0" cy="0" gradientTransform="matrix(-51.19997568 -51.19997568 61.93548296 -61.93548296 72.8 48)" gradientUnits="userSpaceOnUse" r="1" xlink:href="#b"/><radialGradient id="d" cx="0" cy="0" gradientTransform="matrix(-38.56 0 0 -48.1572 77.12 47.2)" gradientUnits="userSpaceOnUse" r="1" xlink:href="#b"/><radialGradient id="e" cx="0" cy="0" gradientTransform="matrix(28.4799984 28.4799984 -34.370905 34.370905 9.12 6.56)" gradientUnits="userSpaceOnUse" r="1"><stop offset="0" stop-color="#faed01"/><stop offset="1" stop-color="#faed01" stop-opacity="0"/></radialGradient><path d="m0 24c0-13.2548 10.7452-24 24-24h48c13.2548 0 24 10.7452 24 24s-10.7452 24-24 24h-48c-13.2548 0-24-10.7452-24-24z" fill="url(#a)"/><path d="m0 24c0-13.2548 10.7452-24 24-24h48c13.2548 0 24 10.7452 24 24s-10.7452 24-24 24h-48c-13.2548 0-24-10.7452-24-24z" fill="url(#c)" fill-opacity=".2"/><path d="m0 24c0-13.2548 10.7452-24 24-24h48c13.2548 0 24 10.7452 24 24s-10.7452 24-24 24h-48c-13.2548 0-24-10.7452-24-24z" fill="url(#d)"/><path d="m0 24c0-13.2548 10.7452-24 24-24h48c13.2548 0 24 10.7452 24 24s-10.7452 24-24 24h-48c-13.2548 0-24-10.7452-24-24z" fill="url(#e)"/><g fill="#fff"><path d="m47.8756 26.6052v5.4776h-3.1396v-17.5867h5.8499c5.5516 0 7.9112 1.9865 7.9112 5.9562 0 4.0943-2.7627 6.1529-7.9112 6.1529zm0-9.2179v6.3267h2.9495c2.9135 0 4.421-.9539 4.421-3.3404 0-2.1602-1.3109-2.9895-4.3686-2.9895z"/><path d="m60.1555 20.4024c.8258-.6195 2.3334-1.1309 4.4963-1.1309 3.6673 0 5.4763 1.2588 5.4763 4.5237v8.2902h-2.7627v-2.2619c-.603 1.4555-2.1335 2.4618-4.1457 2.4618-2.5366 0-4.0409-1.4325-4.0409-3.8943 0-2.865 2.0844-3.6681 5.1715-3.6681h2.8381v-.5507c0-1.7833-.8521-2.3373-2.5366-2.3373-2.3104 0-3.641.9048-4.4931 2.2356zm7.0297 7.2478v-1.0162h-2.4842c-1.7337 0-2.5628.3278-2.5628 1.4554 0 .9539.7013 1.5571 2.0089 1.5571 1.9828 0 2.9135-1.1309 3.0381-1.9963z"/><path d="m71.58 19.5234h3.2772l3.4412 8.6148 2.8118-8.6148h3.1135l-5.0208 13.8924c-1.1077 3.0125-2.2351 3.6911-3.8934 3.6911-.78 0-1.6386-.2262-2.009-.5507v-2.7405c.404.3942.9432.6194 1.5076.6294.9012 0 1.5796-.6031 2.0581-2.2946z"/><path d="m18.8875 20.4143v3.8583l5.1125 3.2059 12.2406-9.0081c-.4319-.9501-.973-1.8467-1.6124-2.6716l-10.6282 7.8214z"/><path d="m34.3267 23.7147v.2786c.0036 2.311-.7667 4.5566-2.188 6.3785s-3.4117 3.1152-5.6537 3.6736c-2.242.5583-4.6063.3494-6.7157-.5932-2.1095-.9427-3.8425-2.5649-4.9226-4.6077-1.0801-2.0429-1.4451-4.3888-1.0366-6.6633.4084-2.2746 1.5667-4.3468 3.29-5.886 1.7234-1.5393 3.9125-2.4568 6.218-2.6063 2.3056-.1495 4.5948.4777 6.5024 1.7815l2.6218-1.9242c-2.3705-1.9161-5.3217-2.9691-8.3694-2.9864-3.0476-.0173-6.0106 1.0023-8.4027 2.8914-2.392 1.889-4.0709 4.5353-4.7611 7.5046-.6902 2.9692-.3507 6.085.9627 8.8358s3.5228 4.9733 6.2654 6.3027c2.7427 1.3294 5.8557 1.6866 8.8281 1.0132 2.9724-.6735 5.6276-2.3377 7.5298-4.7195s2.9384-5.3397 2.9385-8.3881c-.0004-.808-.0727-1.6143-.2163-2.4094z"/></g></svg>